<svg width="72" height="72" viewBox="0 0 72 72" fill="none" xmlns="http://www.w3.org/2000/svg">
<g clip-path="url(#clip0_20_82)">
<path d="M1.51638 42.6652C2.10765 42.5517 2.49602 41.9801 2.38256 41.3888C2.36729 41.3103 0.936018 33.4819 5.96511 27.4208C6.21602 27.1176 6.28365 26.703 6.1462 26.3343C6.11784 26.2601 3.3142 18.7437 6.89674 13.1386C9.24656 9.46228 13.8524 7.36338 20.5855 6.89865C20.832 6.88119 21.0655 6.78083 21.2466 6.61283C21.2815 6.58228 24.6938 3.4841 28.0844 3.27247C28.6866 3.23319 29.1426 2.7161 29.1055 2.1161C29.0684 1.5161 28.5186 1.02519 27.9491 1.09501C24.3993 1.31756 21.0633 3.90519 20.0684 4.74738C12.8029 5.31683 7.7542 7.74301 5.05965 11.9626C1.48584 17.5568 3.24438 24.4426 3.90111 26.511C-1.3178 33.2703 0.174563 41.4477 0.240018 41.799C0.340381 42.3226 0.796381 42.6848 1.31129 42.6848C1.37893 42.6826 1.44874 42.6783 1.51638 42.6652Z" fill="white"/>
<path d="M18.1178 70.5686C18.3316 70.7933 18.6196 70.909 18.9098 70.909C19.1782 70.909 19.4487 70.8108 19.6582 70.6101C20.0967 70.1977 20.1164 69.5061 19.7018 69.0675C18.1026 67.3744 18.4211 61.8893 19.0146 58.6777C19.0255 58.4464 19.248 52.9112 17.2124 47.8995C15.7964 44.413 15.624 39.7439 15.624 37.7017C15.6393 37.3439 15.6458 36.9817 15.6415 36.6152C15.6349 36.0239 15.1615 35.5461 14.5702 35.5352C14.0073 35.5352 13.488 35.9846 13.4596 36.5759C13.4575 36.6413 13.4378 37.0515 13.4378 37.7061C13.1149 44.3082 9.33383 49.4726 9.29455 49.525C8.93455 50.0093 9.03492 50.6922 9.51928 51.0501C10.0015 51.4144 10.6844 51.3119 11.0444 50.8275C11.16 50.677 12.8116 48.4297 14.1033 44.9672C14.3586 46.2479 14.7098 47.5352 15.192 48.7221C17.0247 53.2362 16.8415 58.429 16.8546 58.4268C16.6778 59.3541 15.2335 67.5141 18.1178 70.5686Z" fill="white"/>
<path d="M66.9426 11.9606C64.2458 7.74095 59.1971 5.31477 51.9338 4.74531C50.9368 3.90313 47.6029 1.31549 44.0531 1.09077C43.4924 1.02313 42.9338 1.50968 42.8968 2.11186C42.8575 2.71186 43.3157 3.23113 43.9178 3.26822C47.2931 3.48204 50.7229 6.58022 50.7557 6.61077C50.9368 6.77659 51.1702 6.87695 51.4168 6.8944C58.1433 7.35913 62.7469 9.45586 65.0989 13.1235C68.6793 18.7111 65.8844 26.258 65.856 26.3322C65.7164 26.6988 65.7862 27.1133 66.0371 27.4166C71.0444 33.4537 69.6349 41.306 69.6197 41.3846C69.5084 41.9759 69.8968 42.5475 70.488 42.661C70.5578 42.674 70.6255 42.6806 70.6931 42.6806C71.2058 42.6806 71.6618 42.3162 71.7622 41.7948C71.8298 41.4435 73.32 33.266 68.1011 26.5068C68.7578 24.4406 70.5164 17.5569 66.9426 11.9606Z" fill="white"/>
<path d="M57.8967 44.9672C59.1884 48.4297 60.84 50.6748 60.9556 50.8275C61.3178 51.3119 62.0007 51.4144 62.4807 51.0501C62.9651 50.6922 63.0633 50.0072 62.7055 49.525C62.664 49.4726 58.8851 44.3082 58.5622 37.7061C58.5622 37.0515 58.5425 36.6435 58.5404 36.5759C58.512 35.9846 58.0276 35.5395 57.4298 35.5352C56.8385 35.5461 56.3651 36.0261 56.3585 36.6152C56.3564 36.9861 56.3607 37.3526 56.376 37.7148C56.376 39.7613 56.2058 44.4152 54.7876 47.8995C52.752 52.9133 52.9745 58.4464 53.0051 58.8326C53.5833 61.8893 53.904 67.3701 52.3004 69.0675C51.8858 69.5061 51.9055 70.1977 52.344 70.6101C52.5513 70.8108 52.8196 70.909 53.0902 70.909C53.3804 70.909 53.6684 70.7933 53.8822 70.5686C56.7665 67.5162 55.32 59.3475 55.1629 58.5817C55.1607 58.5315 54.9556 53.2821 56.8058 48.7221C57.2902 47.5352 57.6415 46.2479 57.8967 44.9672Z" fill="white"/>
<path d="M58.104 23.7881C57.5018 23.7881 57.0131 24.2768 57.0131 24.879C57.0131 30.8594 52.0517 35.727 45.9513 35.727C42.432 35.727 39.1986 34.1299 37.0844 31.3394C36.672 30.7983 35.76 30.7961 35.3455 31.3415C33.2313 34.1277 29.9978 35.727 26.4786 35.727C20.3804 35.727 15.4167 30.8615 15.4167 24.879C15.4167 24.2768 14.928 23.7881 14.3258 23.7881C13.7237 23.7881 13.2349 24.2768 13.2349 24.879C13.2349 32.0637 19.176 37.9088 26.4786 37.9088C30.2313 37.9088 33.7113 36.3881 36.216 33.6935C38.7207 36.3859 42.2007 37.9088 45.9535 37.9088C53.256 37.9088 59.1971 32.0637 59.1971 24.879C59.1949 24.2768 58.7084 23.7881 58.104 23.7881Z" fill="white"/>
<path d="M45.6764 12.9141C42.2509 13.8108 38.1207 16.7104 36.4364 17.9693C32.3476 14.2319 26.9629 12.9599 26.7229 12.9053C26.1316 12.7722 25.5491 13.1366 25.4138 13.7235C25.2785 14.3126 25.6451 14.8973 26.232 15.0326C26.2887 15.0457 31.8676 16.3635 35.5702 20.1686C35.784 20.389 36.0676 20.4981 36.3513 20.4981C36.5913 20.4981 36.8313 20.4195 37.032 20.2602C37.0844 20.2166 42.3425 16.0406 46.2262 15.0239C46.8087 14.8733 47.1578 14.2755 47.0051 13.693C46.8545 13.1104 46.2611 12.7548 45.6764 12.9141Z" fill="white"/>
</g>
<defs>
<clipPath id="clip0_20_82">
<rect width="72" height="72" fill="white"/>
</clipPath>
</defs>
</svg>
