<svg width="97" height="81" viewBox="0 0 97 81" fill="none" xmlns="http://www.w3.org/2000/svg">
<path d="M76.145 15.1875H20.855C17.7329 15.1942 14.7415 16.2346 12.5367 18.0804C10.3319 19.9263 9.09374 22.427 9.09375 25.0341V53.4347C9.09374 56.0418 10.3319 58.5425 12.5367 60.3883C14.7415 62.2342 17.7329 63.2745 20.855 63.2812H76.145C79.2671 63.2745 82.2585 62.2342 84.4633 60.3883C86.6681 58.5425 87.9063 56.0418 87.9062 53.4347V25.0341C87.9063 22.427 86.6681 19.9263 84.4633 18.0804C82.2585 16.2346 79.2671 15.1942 76.145 15.1875ZM20.855 20.25H76.145C77.6592 20.2567 79.1086 20.7637 80.1765 21.6601C81.2443 22.5566 81.8438 23.7696 81.8438 25.0341V27.8438H15.1562V25.0341C15.1562 23.7696 15.7557 22.5566 16.8235 21.6601C17.8914 20.7637 19.3408 20.2567 20.855 20.25ZM76.145 58.2188H20.855C19.3408 58.2121 17.8914 57.7051 16.8235 56.8086C15.7557 55.9122 15.1562 54.6991 15.1562 53.4347V32.9062H81.8438V53.4347C81.8438 54.6991 81.2443 55.9122 80.1765 56.8086C79.1086 57.7051 77.6592 58.2121 76.145 58.2188Z" fill="black"/>
<path d="M72.75 48.0938H57.5938C56.7898 48.0938 56.0188 48.3604 55.4503 48.8351C54.8819 49.3098 54.5625 49.9537 54.5625 50.625C54.5625 51.2963 54.8819 51.9402 55.4503 52.4149C56.0188 52.8896 56.7898 53.1562 57.5938 53.1562H72.75C73.5539 53.1562 74.3249 52.8896 74.8934 52.4149C75.4619 51.9402 75.7812 51.2963 75.7812 50.625C75.7812 49.9537 75.4619 49.3098 74.8934 48.8351C74.3249 48.3604 73.5539 48.0938 72.75 48.0938Z" fill="black"/>
</svg>
