<svg width="71" height="72" viewBox="0 0 71 72" fill="none" xmlns="http://www.w3.org/2000/svg">
<g clip-path="url(#clip0_3_147)">
<path d="M60.6026 10.5442C53.8976 3.74469 44.9827 0 35.5004 0C26.018 0 17.1034 3.74469 10.3983 10.5442C3.69303 17.3436 0.000488281 26.384 0.000488281 36C0.000488281 45.5686 3.66197 54.5772 10.3104 61.3661C10.7904 61.8562 11.5709 61.8586 12.0537 61.3723C12.5365 60.8857 12.5393 60.0945 12.0596 59.6045C5.87294 53.2867 2.46593 44.9039 2.46593 36C2.46593 17.5281 17.2852 2.50016 35.5005 2.50016C53.7158 2.50016 68.5349 17.5281 68.5349 36C68.5349 54.4719 53.7157 69.4998 35.5004 69.4998C27.9328 69.4998 20.8133 66.9753 14.9113 62.1992C14.3792 61.7687 13.6036 61.857 13.179 62.3965C12.7542 62.9362 12.8415 63.7227 13.3738 64.1534C19.7169 69.2867 27.3684 72.0001 35.5005 72.0001C44.9827 72.0001 53.8977 68.2555 60.6028 61.456C67.3078 54.6565 71.0005 45.616 71.0005 36.0001C71.0005 26.3842 67.3077 17.3436 60.6026 10.5442Z" fill="#00B011"/>
<path d="M57.1387 27.3474C56.5258 25.773 55.7413 24.2603 54.8062 22.8511C54.4261 22.2782 53.6601 22.1261 53.0955 22.5117C52.5305 22.8973 52.3806 23.674 52.7608 24.2468C53.5966 25.5062 54.2979 26.858 54.8452 28.265C55.0366 28.7564 55.5009 29.0565 55.9923 29.0565C56.1429 29.0565 56.296 29.0284 56.4445 28.9691C57.0778 28.7155 57.3886 27.9896 57.1387 27.3474Z" fill="#00B011"/>
<path d="M45.2068 56.0896C44.9417 55.4537 44.2184 55.1564 43.5913 55.4253C41.0291 56.5241 38.3068 57.0816 35.5 57.0816C24.0371 57.0816 14.7113 47.6244 14.7113 36.0001C14.7113 34.0292 14.9791 32.0784 15.5072 30.2021C15.6941 29.5382 15.3147 28.8464 14.6602 28.657C14.0048 28.4677 13.3232 28.8518 13.1365 29.5159C12.5456 31.6155 12.2459 33.7971 12.2459 36C12.2459 49.003 22.6776 59.5816 35.5 59.5816C38.6385 59.5816 41.6842 58.9579 44.5519 57.728C45.1788 57.4589 45.4724 56.7255 45.2068 56.0896Z" fill="#00B011"/>
<path d="M52.4628 11.985C51.7539 10.7413 50.6216 10.2256 49.8313 9.94609C49.612 9.86846 49.3755 9.85524 49.1491 9.90812L49.0541 9.93034C47.6574 10.2555 46.2131 9.70351 45.3755 8.52367C45.2353 8.32623 45.0413 8.17436 44.8173 8.08703C44.0498 7.78806 42.8774 7.4448 41.5653 7.91786C39.0006 8.84275 36.9974 10.86 36.0691 13.4524C35.9388 13.8165 35.8346 14.1848 35.7506 14.5555C35.2518 13.9182 34.6847 13.3254 34.053 12.7873C33.6546 12.4481 33.2125 12.1748 32.7388 11.9754C31.317 11.3768 29.6722 11.541 28.3387 12.4152L27.8563 12.7313C26.9333 13.3367 25.7499 13.3221 24.8414 12.6936L24.5548 12.4953C22.8566 11.3206 20.6358 11.3452 19.0292 12.5562C18.9605 12.6081 18.8922 12.6622 18.8239 12.7192C17.7797 13.5932 16.8961 14.6313 16.1976 15.8046C15.8457 16.3957 16.0332 17.1641 16.6159 17.5208C17.199 17.8774 17.9564 17.6876 18.3082 17.0967C18.8626 16.1655 19.564 15.3414 20.393 14.6477C20.4282 14.6182 20.4639 14.5901 20.4998 14.5629C21.2634 13.9872 22.3347 13.9862 23.1653 14.5608L23.452 14.7591C25.1822 15.956 27.4365 15.9839 29.1946 14.831L29.677 14.5148C30.3292 14.0873 31.1203 14.0013 31.7929 14.2846C32.0378 14.3879 32.2586 14.5243 32.4671 14.702C34.7757 16.6684 35.9987 19.5512 35.823 22.6116C35.5462 27.4312 31.6021 31.3794 26.8436 31.6003C24.2334 31.7216 21.7596 30.784 19.8774 28.9605C17.994 27.1359 16.9566 24.6769 16.9566 22.0367C16.9566 21.4061 17.0172 20.7759 17.137 20.1633C17.2692 19.4859 16.8351 18.8281 16.1671 18.6941C15.5008 18.5598 14.8507 19.0001 14.7184 19.6773C14.5677 20.4495 14.4911 21.2434 14.4911 22.0366C14.4911 25.3664 15.7991 28.4673 18.1743 30.7681C20.4119 32.9358 23.3112 34.1109 26.3911 34.1107C26.5789 34.1107 26.7672 34.1064 26.9562 34.0975C29.882 33.9617 32.6521 32.727 34.7563 30.6208C36.7612 28.6141 37.991 25.9842 38.2503 23.1766C39.2634 24.1838 40.5051 24.9423 41.9077 25.3864C42.782 25.6633 43.6849 25.8005 44.5875 25.8005C45.8855 25.8005 47.1825 25.5162 48.391 24.9532C50.4399 23.9987 52.0547 22.3272 52.9376 20.2467C54.0861 17.5414 53.9132 14.53 52.4628 11.985ZM50.6736 19.2584C49.3552 22.3644 45.8273 24.0075 42.6427 22.9998C40.8954 22.4468 39.4874 21.2297 38.6776 19.5727C37.8675 17.9146 37.7641 16.044 38.3866 14.3056C39.0627 12.4171 40.5224 10.9475 42.3911 10.2735C42.5564 10.214 42.7241 10.1836 42.906 10.1836C43.1196 10.1836 43.3524 10.2254 43.6232 10.3107C45.007 12.0088 47.1801 12.8181 49.325 12.4253C49.8288 12.6409 50.1294 12.887 50.3283 13.236C51.3851 15.0906 51.5106 17.2854 50.6736 19.2584Z" fill="#00B011"/>
<path d="M62.3218 38.3287C62.5118 35.5196 61.1241 32.8016 58.6796 31.3532C56.2348 29.9048 53.2185 30.0135 50.899 31.5609C49.6409 30.8409 48.1822 30.6492 46.782 31.0219C45.3541 31.4019 44.1578 32.3229 43.4133 33.6153C41.9227 36.2025 42.7144 39.5143 45.1629 41.1339C45.1475 41.3643 45.1343 41.5928 45.1216 41.8176C44.9976 44.0149 44.8695 46.287 42.539 50.332C42.1955 50.928 42.3935 51.6935 42.9815 52.0419L48.6162 55.3803C48.8065 55.4931 49.0214 55.551 49.238 55.551C49.3427 55.551 49.448 55.5375 49.551 55.51C49.8672 55.4257 50.1375 55.2177 50.3023 54.9314C52.1023 51.8072 53.6284 50.4215 54.757 49.5632C55.3016 49.1491 55.412 48.3655 55.0036 47.8132C54.5952 47.2609 53.8226 47.149 53.2778 47.5631C51.5905 48.8463 50.1854 50.4281 48.8159 52.603L45.2683 50.501C47.3073 46.6004 47.464 44.0716 47.5805 42.0079C47.9957 42.0542 48.4157 42.0557 48.8324 42.0062C49.4491 42.9355 50.265 43.7131 51.2296 44.2846C52.1942 44.8561 53.2627 45.1949 54.3637 45.2835C54.8241 46.398 55.6331 47.3452 56.674 47.9618C57.5481 48.4797 58.5061 48.7258 59.4522 48.7258C61.3535 48.7258 63.2067 47.7314 64.233 45.95C65.7557 43.307 64.8964 39.9072 62.3218 38.3287ZM62.1041 44.689C61.2529 46.1667 59.3748 46.6668 57.9172 45.8035C57.1691 45.3602 56.6554 44.6426 56.4709 43.7827C56.3472 43.2059 55.8435 42.7985 55.267 42.7985C55.2457 42.7985 55.2242 42.799 55.2026 42.8002C54.2475 42.8505 53.3019 42.6174 52.4727 42.1262C51.6437 41.6348 50.9797 40.9154 50.5532 40.0456C50.2844 39.4973 49.6633 39.2272 49.0866 39.4076C48.2567 39.6668 47.3883 39.5651 46.6403 39.1223C45.1833 38.2588 44.6903 36.3544 45.5416 34.8764C45.9542 34.1608 46.6167 33.6506 47.4074 33.4401C48.1983 33.2294 49.0225 33.344 49.7282 33.7622C49.8722 33.8476 50.0124 33.9474 50.1451 34.0592C50.6082 34.4499 51.2825 34.4437 51.739 34.0441C53.3301 32.65 55.6193 32.436 57.4357 33.5121C59.2514 34.588 60.1921 36.7154 59.7759 38.806C59.6566 39.4052 59.9822 40.0041 60.5456 40.2215C60.7069 40.2838 60.8613 40.3584 61.0049 40.4436H61.0051C62.4626 41.3069 62.9554 43.2114 62.1041 44.689Z" fill="#00B011"/>
<path d="M34.9346 47.9837C35.6154 47.9837 36.1673 47.4241 36.1673 46.7337C36.1673 46.0433 35.6154 45.4837 34.9346 45.4837C34.2539 45.4837 33.702 46.0433 33.702 46.7337C33.702 47.4241 34.2539 47.9837 34.9346 47.9837Z" fill="#00B011"/>
<path d="M32.3689 42.9835C33.0497 42.9835 33.6016 42.4239 33.6016 41.7335C33.6016 41.0432 33.0497 40.4835 32.3689 40.4835C31.6882 40.4835 31.1363 41.0432 31.1363 41.7335C31.1363 42.4239 31.6882 42.9835 32.3689 42.9835Z" fill="#00B011"/>
<path d="M28.873 47.4838C29.5538 47.4838 30.1057 46.9242 30.1057 46.2338C30.1057 45.5434 29.5538 44.9838 28.873 44.9838C28.1923 44.9838 27.6404 45.5434 27.6404 46.2338C27.6404 46.9242 28.1923 47.4838 28.873 47.4838Z" fill="#00B011"/>
<path d="M25.3327 49.2339C26.0135 49.2339 26.5654 48.6742 26.5654 47.9839C26.5654 47.2935 26.0135 46.7339 25.3327 46.7339C24.652 46.7339 24.1001 47.2935 24.1001 47.9839C24.1001 48.6742 24.652 49.2339 25.3327 49.2339Z" fill="#00B011"/>
<path d="M23.3489 44.7336C24.0297 44.7336 24.5816 44.174 24.5816 43.4836C24.5816 42.7933 24.0297 42.2336 23.3489 42.2336C22.6681 42.2336 22.1163 42.7933 22.1163 43.4836C22.1163 44.174 22.6681 44.7336 23.3489 44.7336Z" fill="#00B011"/>
<path d="M27.5401 42.4835C28.2209 42.4835 28.7728 41.9238 28.7728 41.2335C28.7728 40.5431 28.2209 39.9835 27.5401 39.9835C26.8593 39.9835 26.3075 40.5431 26.3075 41.2335C26.3075 41.9238 26.8593 42.4835 27.5401 42.4835Z" fill="#00B011"/>
<path d="M28.873 37.9834C29.5538 37.9834 30.1057 37.4237 30.1057 36.7333C30.1057 36.043 29.5538 35.4833 28.873 35.4833C28.1923 35.4833 27.6404 36.043 27.6404 36.7333C27.6404 37.4237 28.1923 37.9834 28.873 37.9834Z" fill="#00B011"/>
<path d="M23.1024 40.2334C23.7831 40.2334 24.335 39.6737 24.335 38.9833C24.335 38.293 23.7831 37.7333 23.1024 37.7333C22.4216 37.7333 21.8697 38.293 21.8697 38.9833C21.8697 39.6737 22.4216 40.2334 23.1024 40.2334Z" fill="#00B011"/>
</g>
<defs>
<clipPath id="clip0_3_147">
<rect width="71" height="72" fill="white"/>
</clipPath>
</defs>
</svg>
