<svg width="75" height="72" viewBox="0 0 75 72" fill="none" xmlns="http://www.w3.org/2000/svg">
<path d="M56.25 6.75C51.0727 6.75 46.3852 8.76488 42.9926 12.0229L38.3297 16.479C37.8715 16.9189 37.1309 16.9189 36.6727 16.479C36.6727 16.479 32.0191 12.0128 32.0098 12.0229C28.6148 8.76488 23.9273 6.75 18.75 6.75C8.39414 6.75 0 14.8084 0 24.75C0 28.5053 1.2 31.9905 3.24961 34.875C3.24961 34.875 4.10977 36.1845 5.12695 37.1599C6.14414 38.1352 34.1859 65.0565 34.1859 65.0565C35.1012 65.9351 36.3012 66.375 37.5 66.375C38.6988 66.375 39.8988 65.9351 40.8141 65.0565C40.8141 65.0565 68.857 38.1352 69.873 37.1599C70.8891 36.1845 71.7504 34.875 71.7504 34.875C73.8 31.9905 75 28.5053 75 24.75C75 14.8084 66.6059 6.75 56.25 6.75ZM68.8055 34.8491C68.8055 34.8491 68.0883 35.6929 66.6691 37.0553C65.25 38.4176 39.157 63.4658 39.157 63.4658C38.6988 63.9056 38.1 64.125 37.5 64.125C36.9 64.125 36.3012 63.9056 35.843 63.4658C35.843 63.4658 9.75 38.4165 8.33086 37.0541C6.91172 35.6917 6.19453 34.848 6.19453 34.848C3.80273 32.1131 2.34375 28.602 2.34375 24.75C2.34375 16.0515 9.68906 9 18.75 9C23.2805 9 27.382 10.7617 30.3504 13.6136L30.3609 13.6035L35.843 18.8651C36.7582 19.7437 38.2418 19.7437 39.157 18.8651L44.6391 13.6035L44.6496 13.6136C47.618 10.7617 51.7195 9 56.25 9C65.3109 9 72.6562 16.0515 72.6562 24.75C72.6562 28.602 71.1973 32.1131 68.8055 34.8491Z" fill="#00B011"/>
<path d="M56.25 13.5C55.602 13.5 55.0781 14.0029 55.0781 14.625C55.0781 15.2471 55.602 15.75 56.25 15.75C61.4273 15.75 65.625 19.7797 65.625 24.75C65.625 25.3721 66.1488 25.875 66.7969 25.875C67.4449 25.875 67.9688 25.3721 67.9688 24.75C67.9688 18.5378 62.7211 13.5 56.25 13.5Z" fill="#00B011"/>
</svg>
