<svg width="71" height="69" viewBox="0 0 71 69" fill="none" xmlns="http://www.w3.org/2000/svg">
<g clip-path="url(#clip0_3_137)">
<path d="M55.5078 0H15.4922C12.466 0 10.0039 2.39272 10.0039 5.33366V63.6663C10.0039 66.6073 12.466 69 15.4922 69H55.5078C58.534 69 60.9961 66.6073 60.9961 63.6663V5.33366C60.9961 2.39272 58.534 0 55.5078 0ZM58.9119 63.6663C58.9119 65.4905 57.3848 66.9746 55.5078 66.9746H15.4922C13.6152 66.9746 12.0881 65.4905 12.0881 63.6663V5.33366C12.0881 3.50955 13.6152 2.02544 15.4922 2.02544H55.5078C57.3848 2.02544 58.9119 3.50955 58.9119 5.33366V63.6663Z" fill="#00B011"/>
<path d="M51.8953 8.64188H19.1047C18.3769 8.64188 17.7847 9.21737 17.7847 9.92465V20.1869C17.7847 20.8942 18.3769 21.4697 19.1047 21.4697H51.8953C52.6231 21.4697 53.2153 20.8942 53.2153 20.1869V9.92465C53.2153 9.21737 52.6231 8.64188 51.8953 8.64188ZM51.1311 19.4442H19.8689V10.6673H51.1311V19.4442Z" fill="#00B011"/>
<path d="M51.8953 25.9256H19.1047C18.3769 25.9256 17.7847 26.5011 17.7847 27.2084V59.0753C17.7847 59.7826 18.3769 60.3581 19.1047 60.3581H51.8953C52.6231 60.3581 53.2153 59.7826 53.2153 59.0753V27.2084C53.2153 26.5011 52.6231 25.9256 51.8953 25.9256ZM30.9843 47.5303V38.7534H40.0157V47.5303H30.9843ZM40.0157 49.5558V58.3327H30.9843V49.5558H40.0157ZM19.8689 38.7534H28.9002V47.5303H19.8689V38.7534ZM30.9843 36.728V27.9511H40.0157V36.728H30.9843ZM42.0998 38.7534H51.1311V47.5303H42.0998V38.7534ZM51.1311 36.728H42.0998V27.9511H51.1311V36.728ZM28.9002 27.9511V36.728H19.8689V27.9511H28.9002ZM19.8689 49.5558H28.9002V58.3327H19.8689V49.5558ZM42.0998 58.3327V49.5558H51.1311V58.3327H42.0998Z" fill="#00B011"/>
<path d="M38.8346 17.1487C39.4101 17.1487 39.8767 16.6953 39.8767 16.136V13.9755C39.8767 13.4163 39.4101 12.9628 38.8346 12.9628C38.2591 12.9628 37.7926 13.4163 37.7926 13.9755V16.136C37.7926 16.6953 38.2591 17.1487 38.8346 17.1487Z" fill="#00B011"/>
<path d="M43.2808 17.1487C43.8563 17.1487 44.3229 16.6953 44.3229 16.136V13.9755C44.3229 13.4163 43.8563 12.9628 43.2808 12.9628C42.7053 12.9628 42.2387 13.4163 42.2387 13.9755V16.136C42.2387 16.6953 42.7053 17.1487 43.2808 17.1487Z" fill="#00B011"/>
<path d="M47.727 17.1487C48.3025 17.1487 48.7691 16.6953 48.7691 16.136V13.9755C48.7691 13.4163 48.3025 12.9628 47.727 12.9628C47.1515 12.9628 46.6849 13.4163 46.6849 13.9755V16.136C46.6849 16.6953 47.1515 17.1487 47.727 17.1487Z" fill="#00B011"/>
</g>
<defs>
<clipPath id="clip0_3_137">
<rect width="71" height="69" fill="white"/>
</clipPath>
</defs>
</svg>
