<svg width="75" height="75" viewBox="0 0 75 75" fill="none" xmlns="http://www.w3.org/2000/svg">
<g clip-path="url(#clip0_3_207)">
<path d="M18.1255 51.7664C16.8477 51.7664 15.5996 52.1183 14.5161 52.7842C14.12 53.0278 13.9962 53.5461 14.2396 53.9418C14.4826 54.3379 15.0012 54.4617 15.3974 54.2183C16.2156 53.7158 17.1587 53.45 18.1253 53.45C21.003 53.45 23.3441 55.7911 23.3441 58.6688C23.3441 61.5465 21.003 63.8877 18.1253 63.8877C15.2476 63.8877 12.9066 61.5467 12.9066 58.6688C12.9066 58.204 12.5297 57.8271 12.0649 57.8271C12.012 57.8271 4.20861 57.8271 4.20861 57.8271C2.81607 57.8271 1.68348 56.6945 1.68348 55.302V30.3867C1.68348 29.9217 1.30666 29.5449 0.841645 29.5449C0.376632 29.5449 0 29.9217 0 30.3867V55.3018C0 57.6226 1.88778 59.5104 4.20861 59.5104H11.2799C11.697 62.9197 14.6051 65.5708 18.1255 65.5708C21.9315 65.5708 25.0277 62.4748 25.0277 58.6686C25.0277 54.8626 21.9313 51.7664 18.1255 51.7664Z" fill="#00B011"/>
<path d="M33.4702 41.218H10.4735C10.0085 41.218 9.63165 40.8411 9.63165 40.3763C9.63165 39.9113 10.0085 39.5345 10.4735 39.5345H33.4702C34.8627 39.5345 35.9953 38.4019 35.9953 37.0094V28.4208C35.9953 27.0273 34.8617 25.8912 33.4681 25.8881L4.20649 25.8211C1.8872 25.8157 0 23.9243 0 21.6048V13.1595C0 10.8386 1.88797 8.95087 4.20861 8.95087H35.5613C37.8821 8.95087 39.7699 10.8386 39.7699 13.1595V17.5645C39.7699 18.0295 39.3933 18.4061 38.9283 18.4061C38.4632 18.4061 38.0866 18.0293 38.0866 17.5645V13.1595C38.0866 11.7669 36.9538 10.6343 35.5613 10.6343H4.20861C2.81607 10.6343 1.68348 11.7669 1.68348 13.1595V21.6048C1.68348 22.9983 2.81704 24.1344 4.21073 24.1376L33.4723 24.2046C35.7918 24.21 37.6788 26.1015 37.6788 28.4208V37.0094C37.6788 39.3298 35.791 41.218 33.4702 41.218Z" fill="#00B011"/>
<path d="M70.5711 59.4825H67.508C67.043 59.4825 66.6664 59.1059 66.6664 58.6409C66.6664 58.1758 67.043 57.7992 67.508 57.7992H70.5711C72.0852 57.7992 73.3169 56.5676 73.3169 55.0536V43.7535C73.3169 41.9283 72.56 39.0433 71.6641 37.4534L62.4504 21.103C61.6271 19.6408 59.5136 18.4057 57.8352 18.4057H50.4053C48.8913 18.4057 47.6596 19.6373 47.6596 21.1513V36.5778C47.6596 38.0917 48.8911 39.3233 50.4053 39.3233H64.4717C64.9367 39.3233 65.3133 39.6999 65.3133 40.1649C65.3133 40.6299 64.9367 41.0065 64.4717 41.0065H50.4053C47.9628 41.0065 45.9761 39.0198 45.9761 36.5778V21.1513C45.9761 18.709 47.9628 16.7223 50.4053 16.7223H57.8352C60.1229 16.7223 62.7943 18.2835 63.9171 20.2768L73.1304 36.6268C74.1788 38.487 75 41.6175 75 43.7535V55.0536C75.0004 57.4956 73.0135 59.4825 70.5711 59.4825Z" fill="#00B011"/>
<path d="M55.7644 51.0653C54.3777 51.0653 53.0229 51.4469 51.8466 52.1696C51.4507 52.413 51.3269 52.9311 51.5697 53.3272C51.8129 53.7235 52.331 53.8469 52.7277 53.6037C53.6387 53.0445 54.6886 52.7486 55.7644 52.7486C58.9673 52.7486 61.5733 55.3542 61.5733 58.5571C61.5733 61.7604 58.9673 64.366 55.7644 64.366C52.5613 64.366 49.9561 61.7604 49.9561 58.5571C49.9561 58.0921 49.5795 57.7155 49.1145 57.7155H31.184C30.719 57.7155 30.3422 58.0921 30.3422 58.5571C30.3422 59.0221 30.719 59.3987 31.184 59.3987H48.3211C48.7411 63.1354 51.9182 66.0495 55.7644 66.0495C59.896 66.0495 63.2568 62.6887 63.2568 58.5571C63.257 54.4261 59.896 51.0653 55.7644 51.0653Z" fill="#00B011"/>
</g>
<defs>
<clipPath id="clip0_3_207">
<rect width="75" height="75" fill="white"/>
</clipPath>
</defs>
</svg>
