<svg width="62" height="65" viewBox="0 0 62 65" fill="none" xmlns="http://www.w3.org/2000/svg">
<path d="M58.264 38.6926L56.4026 35.4603L48.3681 40.0865L35.6624 32.7501L35.2301 32.5L35.6624 32.2499L48.3693 24.9136L56.4015 29.5384L58.264 26.3062L52.1018 22.7595L60.429 17.9511L58.5639 14.7213L50.2356 19.5296L50.2453 12.418L46.5152 12.4132L46.5029 21.6836L33.7974 29.0199L33.365 29.2702V14.0972L41.3863 9.45278L39.5188 6.22406L33.365 9.7878V0.172363H29.635V9.7878L23.4813 6.22406L21.6137 9.45278L29.635 14.0972V29.2702L16.4958 21.6836L16.4849 12.4132L12.7547 12.418L12.762 19.5284L4.43613 14.7213L2.57098 17.9511L10.897 22.7582L4.73592 26.3062L6.59741 29.5384L14.6294 24.9136L27.7698 32.5L14.632 40.0865L6.59615 35.4603L4.73479 38.6926L10.8994 42.2405L2.57098 47.0489L4.43613 50.2787L12.762 45.4716L12.7537 52.5808L16.4837 52.5857L16.4946 43.3164L29.635 35.7298V36.23V50.9028L21.6137 55.546L23.4813 58.7747L29.635 55.2121V64.8275H33.365V55.2121L39.5188 58.7747L41.3863 55.546L33.365 50.9028V36.23V35.7298L33.7974 35.98L46.5042 43.3164L46.5152 52.5857L50.2453 52.5808L50.2379 45.4716L58.5639 50.2787L60.429 47.0489L52.1006 42.2405L58.264 38.6926Z" fill="black" stroke="black" stroke-width="0.000646552"/>
</svg>
