<svg width="75" height="75" viewBox="0 0 75 75" fill="none" xmlns="http://www.w3.org/2000/svg">
<path d="M64.264 43.6926L62.4026 40.4603L54.3681 45.0865L41.6624 37.7501L41.2301 37.5L41.6624 37.2499L54.3693 29.9136L62.4015 34.5384L64.264 31.3062L58.1018 27.7595L66.429 22.9511L64.5639 19.7213L56.2356 24.5296L56.2453 17.418L52.5152 17.4132L52.5029 26.6836L39.7974 34.0199L39.365 34.2702V19.0972L47.3863 14.4528L45.5188 11.2241L39.365 14.7878V5.17236H35.635V14.7878L29.4813 11.2241L27.6137 14.4528L35.635 19.0972V34.2702L22.4958 26.6836L22.4849 17.4132L18.7547 17.418L18.762 24.5284L10.4361 19.7213L8.57098 22.9511L16.897 27.7582L10.7359 31.3062L12.5974 34.5384L20.6294 29.9136L33.7698 37.5L20.632 45.0865L12.5961 40.4603L10.7348 43.6926L16.8994 47.2405L8.57098 52.0489L10.4361 55.2787L18.762 50.4716L18.7537 57.5808L22.4837 57.5857L22.4946 48.3164L35.635 40.7298V41.23V55.9028L27.6137 60.546L29.4813 63.7747L35.635 60.2121V69.8275H39.365V60.2121L45.5188 63.7747L47.3863 60.546L39.365 55.9028V41.23V40.7298L39.7974 40.98L52.5042 48.3164L52.5152 57.5857L56.2453 57.5808L56.2379 50.4716L64.5639 55.2787L66.429 52.0489L58.1006 47.2405L64.264 43.6926Z" fill="white" stroke="white" stroke-width="0.000646552"/>
</svg>
