<svg width="71" height="70" viewBox="0 0 71 70" fill="none" xmlns="http://www.w3.org/2000/svg">
<path d="M68.7369 34.6161C67.3912 11.5533 55.3068 8.18125 45.5642 8.18016C43.1025 8.18125 40.7917 8.39563 38.8403 8.56406C38.8237 7.51516 38.8692 6.39188 39.0478 5.15047C39.0511 5.13297 39.0433 5.11766 39.0411 5.10125C39.0433 5.0925 39.0478 5.08375 39.0478 5.075C39.0478 4.68891 38.3111 4.375 37.3992 4.375C36.4896 4.375 35.7529 4.68891 35.7529 5.075C35.5034 6.32635 35.1635 7.5585 34.7356 8.76203C21.8813 8.83859 4.94892 10.8489 2.36407 33.833C0.489229 50.5138 17.0134 65.625 35.6032 65.625C54.193 65.625 69.7142 51.3789 68.7369 34.6161ZM39.5326 11.7983C39.9863 11.7589 40.4567 11.7184 40.9404 11.6802C40.3591 11.9109 39.7944 12.1505 39.263 12.3911C39.2242 12.2183 39.1975 12.0127 39.162 11.8289L39.5326 11.7983ZM33.3656 12.0586C33.2202 12.3572 33.0782 12.6437 32.9418 12.9073C32.6146 12.6154 32.2689 12.3443 31.9067 12.0958C32.3926 12.0794 32.8785 12.0684 33.3656 12.0586ZM58.4053 52.8566C52.631 58.8864 44.3195 62.3438 35.6032 62.3438C26.7204 62.3438 17.8975 58.4675 12.0001 51.975C7.22202 46.713 4.97443 40.3988 5.67223 34.1939C6.9824 22.5477 12.2087 16.9848 18.9159 14.35C25.4147 13.16 31.5295 15.3453 31.5295 15.3453C31.5295 15.3453 17.6302 11.9437 12.1798 29.5509C19.0391 19.0083 30.8428 22.1112 33.948 18.2252C33.948 25.7381 39.486 22.0927 42.2849 25.4767C45.886 29.8277 47.2039 37.6239 51.3463 39.1595C47.266 30.5233 53.9467 30.8602 44.5603 19.2697C49.5047 22.2983 52.0685 19.2336 58.8202 21.9625C53.0436 12.6536 43.8026 15.3453 43.8026 15.3453C43.8026 15.3453 47.5633 11.9667 51.5504 12.0608C58.2866 13.6117 64.4824 18.83 65.4154 34.8053C65.7948 41.3295 63.3054 47.74 58.4053 52.8566Z" fill="black"/>
</svg>
